<svg xmlns="http://www.w3.org/2000/svg" width="315" height="315" viewBox="0 0 315 315">
  <defs>
    <style>
      .cls-1 {
        fill: #67513e;
        fill-rule: evenodd;
      }
    </style>
  </defs>
  <path id="logo" class="cls-1" d="M165.329,29.438A89.83,89.83,0,0,1,201.76,43.249c9.914,6.7,17.2,15.1,21.08,24.294a4.136,4.136,0,0,0,7.622-3.212C225.962,53.662,217.639,44,206.4,36.4a98.136,98.136,0,0,0-39.8-15.133A4.134,4.134,0,1,0,165.329,29.438ZM84.966,60.447A4.133,4.133,0,1,0,86.389,55.5,4.229,4.229,0,0,0,84.966,60.447Zm19.925-15.393a4.132,4.132,0,1,0,1.4-4.933A4.223,4.223,0,0,0,104.891,45.054ZM126.3,60.447a4.133,4.133,0,1,0,1.423-4.951A4.231,4.231,0,0,0,126.3,60.447Zm128.912,73.565a20.944,20.944,0,0,0-13.988-19.725V103.943a17.827,17.827,0,0,0,3.753-1.913,16.322,16.322,0,0,0,7.41-13.7,16.147,16.147,0,0,0-3.066-9.512,13.338,13.338,0,0,0,.822-7.652c-3.541-18.931-15.7-36.26-34.243-48.8C197.429,9.877,173.791,3,149.336,3S101.243,9.877,82.777,22.364c-18.541,12.537-30.7,29.867-34.243,48.8a13.325,13.325,0,0,0,1.727,9.414A16.073,16.073,0,0,0,48.3,88.327a16.319,16.319,0,0,0,7.412,13.7,18.1,18.1,0,0,0,1.738,1.024v11.232a20.945,20.945,0,0,0-13.988,19.725v0.84a20.85,20.85,0,0,0,6.669,15.288,16.295,16.295,0,0,0,2.394,18.45v14.917a28.941,28.941,0,0,0,28.915,28.9H217.23a28.941,28.941,0,0,0,28.915-28.9V170.465a16.318,16.318,0,0,0,3.671-21.618,20.816,20.816,0,0,0,5.392-14v-0.84Zm-8.271,0v0.84A12.664,12.664,0,0,1,234.288,147.5h-64.13l26.373-26.126h37.755A12.662,12.662,0,0,1,246.937,134.012ZM106.146,121.369l0.656,0.657,4.242,4.239-8.88,8.878-13.78-13.774h17.762Zm39.048,27.337-25.373-25.359a0.007,0.007,0,0,0,0,0l-1.974-1.973h66.92l-27.64,27.321,0,0.007-0.011.009-5.958,5.955ZM56.662,72.68C59.795,55.939,70.715,40.5,87.411,29.21c17.113-11.571,39.1-17.943,61.925-17.943s44.812,6.372,61.925,17.943c16.7,11.29,27.615,26.729,30.749,43.47a5.2,5.2,0,0,1-5.055,6.071H61.717A5.192,5.192,0,0,1,56.662,72.68ZM56.879,86.12a13.471,13.471,0,0,0,4.838.9H236.955a13.491,13.491,0,0,0,6.568-1.71,8,8,0,0,1,.589,3.016,8.172,8.172,0,0,1-3.752,6.84,9.746,9.746,0,0,1-8.331,1.148c-1.378-.436-2.678-1-4.1-1.3a22.364,22.364,0,0,0-4.683-.475c-7.388,0-11.352,2.8-14.536,5.043-2.8,1.973-5,3.531-9.764,3.531s-6.969-1.558-9.764-3.529c-3.184-2.249-7.147-5.044-14.536-5.044s-11.35,2.8-14.535,5.044c-2.794,1.971-5,3.529-9.764,3.529s-6.97-1.558-9.765-3.531c-3.184-2.248-7.147-5.043-14.535-5.043s-11.352,2.8-14.536,5.043c-2.8,1.973-5,3.531-9.764,3.531s-6.971-1.558-9.767-3.531c-3.184-2.248-7.147-5.043-14.536-5.043a20.942,20.942,0,0,0-8.056,1.515,9.763,9.763,0,0,1-9.061-.885,8.172,8.172,0,0,1-3.751-6.84A7.958,7.958,0,0,1,56.879,86.12Zm9.667,18.906a20.059,20.059,0,0,0,6.224-1.421,14.253,14.253,0,0,1,6.346-.729c3.651,0.324,5.648,1.734,8.094,3.458,3.184,2.248,7.147,5.045,14.536,5.045s11.35-2.8,14.534-5.045c2.8-1.971,5-3.529,9.766-3.529s6.969,1.558,9.764,3.529c3.184,2.248,7.148,5.045,14.536,5.045s11.35-2.8,14.534-5.045c2.8-1.971,5-3.529,9.764-3.529s6.971,1.558,9.766,3.529c3.184,2.248,7.147,5.045,14.534,5.045s11.351-2.8,14.535-5.045c2.8-1.971,5-3.529,9.765-3.529a13.4,13.4,0,0,1,4.924.9,19.16,19.16,0,0,0,4.779,1.23V113.1H65.724v-8.054C66,105.047,66.271,105.039,66.546,105.026ZM51.735,134.012a12.662,12.662,0,0,1,12.649-12.643h12.3L99.24,143.912a4.138,4.138,0,0,0,5.848,0l11.806-11.8L132.285,147.5h-67.9a12.664,12.664,0,0,1-12.649-12.643v-0.84Zm5.522,20.5a20.972,20.972,0,0,0,7.127,1.252h76.172l7.67,7.666a4.178,4.178,0,0,0,5.835.013l7.753-7.679h72.472a21.056,21.056,0,0,0,6.866-1.158,10.5,10.5,0,0,0,1.368-.544,1.2,1.2,0,0,1,.511-0.223,0.619,0.619,0,0,1,.371.492,7.985,7.985,0,0,1,.706,3.151,8.6,8.6,0,0,1-6.408,8.225,9.792,9.792,0,0,1-6.4-.352,20.9,20.9,0,0,0-8.052-1.514c-7.387,0-11.35,2.8-14.534,5.044-2.8,1.973-5,3.531-9.766,3.531s-6.969-1.558-9.764-3.531c-3.184-2.248-7.147-5.044-14.534-5.044s-11.35,2.8-14.536,5.044c-2.8,1.973-5,3.531-9.764,3.531s-6.969-1.558-9.766-3.531c-3.184-2.248-7.147-5.044-14.534-5.044s-11.351,2.8-14.536,5.044c-2.8,1.973-5,3.531-9.764,3.531s-6.971-1.559-9.766-3.531c-3.186-2.248-7.148-5.044-14.538-5.044a20.89,20.89,0,0,0-8.055,1.516,9.755,9.755,0,0,1-8.394-.478,8.478,8.478,0,0,1-4.326-6.023,8.151,8.151,0,0,1-.023-2.312C56.674,156.32,57.053,154.437,57.257,154.511Zm180.617,29a20.664,20.664,0,0,1-20.644,20.635H81.442A20.664,20.664,0,0,1,60.8,183.507V173.7a17.913,17.913,0,0,0,10.554-.266l0.212-.071c0.318-.112.636-0.226,0.95-0.355a12.789,12.789,0,0,1,4.929-.9c4.764,0,6.971,1.556,9.766,3.529,3.186,2.248,7.148,5.045,14.538,5.045s11.35-2.8,14.534-5.045c2.8-1.973,5-3.529,9.764-3.529s6.971,1.556,9.766,3.529c3.184,2.248,7.147,5.045,14.536,5.045s11.35-2.8,14.534-5.045c2.8-1.973,5-3.529,9.764-3.529s6.971,1.556,9.764,3.529c3.184,2.248,7.149,5.045,14.536,5.045s11.351-2.8,14.535-5.045c2.795-1.973,5-3.529,9.765-3.529a13.652,13.652,0,0,1,3.659.468c1.133,0.315,2.2.812,3.335,1.132a17.851,17.851,0,0,0,7.635.429v9.369h0ZM136.892,45.054A4.134,4.134,0,1,0,138.32,40.1,4.223,4.223,0,0,0,136.892,45.054Zm18.656,18.221a4.133,4.133,0,1,0,1.423-4.951A4.226,4.226,0,0,0,155.548,63.275ZM144.989,26.158a4.135,4.135,0,1,0-1.567-4.9A4.222,4.222,0,0,0,144.989,26.158ZM46.39,210.187q-0.6,16.275-.6,28.279,2.867-5.138,7.3-6,0.757-.054,1.46-0.055,17.634,0,18.013,25.467v0.973q0,25.521-18.771,25.521-4.491,0-8.493-6l-0.432,8.273-12.82-.054q0.269-19.789.27-38.065,0-20.058-.325-38.335H46.39Zm-0.6,38.389-0.27,18.709q2.812,5.731,7.141,5.731a8.833,8.833,0,0,0,.974-0.054q4.977-.7,5.518-13.355,0.053-1.3.054-2.487,0-10.383-4.22-12.382a6.069,6.069,0,0,0-2.542-.595Q49.04,244.143,45.794,248.576ZM104.92,286.7l-0.541-8.813q-2.271,7.029-12.225,7.083a0.4,0.4,0,0,1-.162.054q-9.846,0-13.037-8.867-2.165-5.893-2.164-24.386,0-9.514.595-22.439H90.531q-1.083,18.168-1.082,27.955,0,4.92.27,7.677,0.811,8.435,5.464,8.435t5.842-4.38l-0.541-37.523,12.712-.109q0,23.25,1.677,54.178Zm28.833-38.767,0.541,39.2-13.253.108q0-24.872-1.677-55.854l9.953-1.082,0.541,8.814q2.272-6.489,10.6-7.408,1.245-.107,2.381-0.107,6.544,0,9.954,4.271,3.946,5.082,4,16.166l-12.009,1.191c0.036-.614.054-1.208,0.054-1.786q0-8.649-4.49-8.65h-0.216Q134.943,243.063,133.753,247.928Zm28.183,45.039,12.712-.7c-0.037.433-.054,0.865-0.054,1.3q0,5.892,4.706,6.434a10.01,10.01,0,0,0,1.407.108,6.037,6.037,0,0,0,5.787-3.244q1.515-2.921,1.516-10.922,0-2.161-.109-4.758-3.03,6.055-11.252,6.6-16.065-.163-16.066-27.305v-0.379q0.109-27.466,19.1-27.629,5.193,0,9.306,6.055l0.161-8.6,11.847,0.541q0,44.609-.271,55.259T197.5,302.808a14.3,14.3,0,0,1-10.035,8.219,29.307,29.307,0,0,1-7.41.973,28.746,28.746,0,0,1-6.545-.757q-6.927-1.622-9.522-6.11a18.833,18.833,0,0,1-2.164-9.625Q161.827,294.32,161.936,292.967Zm25.857-21.411V249.6q-2.652-5.354-6.708-5.353a6.917,6.917,0,0,0-1.677.216q-5.247,1.245-5.788,14.437-0.054,1.407-.054,2.7,0,10.758,4,13.192a5.229,5.229,0,0,0,2.867.866Q183.79,275.666,187.793,271.556Zm36.406-40.39q18.39,0,18.392,25.521,0,1.028-.054,2.054-0.759,27.63-19.582,27.9a1.741,1.741,0,0,1-.433.054q-17.907,0-17.906-26.115v-1.514Q205.156,231.166,224.2,231.166Zm-1.785,12.328q-3.408,1.19-4.652,8.813a55.346,55.346,0,0,0-.758,9.138,60.461,60.461,0,0,0,.325,6.218q0.865,7.786,5.571,8.056h0.379q4.381,0,6-5.785a42.492,42.492,0,0,0,1.354-11.408c0-1.083-.02-2.181-0.055-3.3q-0.433-8.7-2.6-10.868a4.526,4.526,0,0,0-3.246-1.3A7.1,7.1,0,0,0,222.414,243.494Zm42.194-12.328q18.39,0,18.392,25.521,0,1.028-.055,2.054-0.757,27.63-19.581,27.9a1.747,1.747,0,0,1-.433.054q-17.907,0-17.906-26.115v-1.514Q245.565,231.166,264.608,231.166Zm-1.785,12.328q-3.408,1.19-4.653,8.813a55.455,55.455,0,0,0-.758,9.138,60.744,60.744,0,0,0,.325,6.218q0.867,7.786,5.572,8.056h0.378q4.383,0,6-5.785a42.5,42.5,0,0,0,1.353-11.408c0-1.083-.019-2.181-0.054-3.3q-0.433-8.7-2.6-10.868a4.528,4.528,0,0,0-3.246-1.3A7.1,7.1,0,0,0,262.823,243.494Z"/>
</svg>
